<svg xmlns="http://www.w3.org/2000/svg" viewBox="0 0 64 64">
  <rect width="64" height="64" fill="#0f172a"/>
  <g fill="#60a5fa">
    <rect x="18" y="6" width="10" height="52" rx="1.5"/>
    <rect x="36" y="14" width="10" height="44" rx="1.5"/>
  </g>
  <g fill="#e6f2ff">
    <rect x="20" y="10" width="2" height="4"/>
    <rect x="24" y="10" width="2" height="4"/>
    <rect x="20" y="16" width="2" height="4"/>
    <rect x="24" y="16" width="2" height="4"/>

    <rect x="38" y="18" width="2" height="4"/>
    <rect x="42" y="18" width="2" height="4"/>
    <rect x="38" y="24" width="2" height="4"/>
    <rect x="42" y="24" width="2" height="4"/>

    <rect x="20" y="22" width="2" height="4"/>
    <rect x="24" y="22" width="2" height="4"/>
    <rect x="20" y="28" width="2" height="4"/>
    <rect x="24" y="28" width="2" height="4"/>

    <rect x="38" y="30" width="2" height="4"/>
    <rect x="42" y="30" width="2" height="4"/>
  </g>
</svg>